# xmcd
#
# Track frame offsets:
#	150
#	12782
#	27153
#	42937
#	57362
#	72025
#	86931
#	100331
#	117101
#	132345
#	147647
#	163895
#	182068
#	197043
#	212238
#	228140
#	244993
#	263303
#	280426
#	296880
#	316509
#	333281
#
# Disc length: 4629 seconds
#
# Revision: 0
# Processed by: cddbd v1.5.2PL0 Copyright (c) Steve Scherf et al.
# Submitted via: EasyCDDAExtractor 16.0.0.1
#
DISCID=46121316
DTITLE=Bellamy Brothers - Our Swedish Collection
DYEAR=2001
DGENRE=Country
TTITLE0=Let Your Love Flow
TTITLE1=If I Said You Had A Beautiful Body
TTITLE2=Sugar Daddy
TTITLE3=Big Hair
TTITLE4=Dancin' Cowboys
TTITLE5=Lovers Live Longer
TTITLE6=Do You Love As Good As You Look
TTITLE7=For All The Wrong Reasons
TTITLE8=Redneck Girl
TTITLE9=I Need More Of You
TTITLE10=Crazy From The Hart
TTITLE11=Old Hippie
TTITLE12=Big Love
TTITLE13=On A Summernight
TTITLE14=Heartbreak Overload
TTITLE15=Over The Line
TTITLE16=Afterglow
TTITLE17=Guilty Of The Crime
TTITLE18=Shine Them Buckles
TTITLE19=You Ain't Just Whistlin' Dixie
TTITLE20=Santa Fe
TTITLE21=The Ex-Files (Duet With Buck Owens)
EXTD=
EXTT0=
EXTT1=
EXTT2=
EXTT3=
EXTT4=
EXTT5=
EXTT6=
EXTT7=
EXTT8=
EXTT9=
EXTT10=
EXTT11=
EXTT12=
EXTT13=
EXTT14=
EXTT15=
EXTT16=
EXTT17=
EXTT18=
EXTT19=
EXTT20=
EXTT21=
PLAYORDER=
